<svg width="302" height="69" viewBox="0 0 302 69" fill="none" xmlns="http://www.w3.org/2000/svg">
<path fill-rule="evenodd" clip-rule="evenodd" d="M37.0377 62.2131C53.0874 62.2131 66.0981 49.2991 66.0981 33.3688C66.0981 17.4385 53.0874 4.52454 37.0377 4.52454C20.9881 4.52454 7.97736 17.4385 7.97736 33.3688C7.97736 49.2991 20.9881 62.2131 37.0377 62.2131Z" fill="#E6F0FC"/>
<path fill-rule="evenodd" clip-rule="evenodd" d="M32.497 33.3688H40.6703V41.4813H32.497V33.3688Z" fill="#FFC200"/>
<path fill-rule="evenodd" clip-rule="evenodd" d="M37.0378 36.0729C29.41 36.0729 27.0483 28.526 27.0483 22.5522C27.0483 16.5784 31.5207 14.4397 37.0378 14.4397C42.5548 14.4397 47.0272 16.5784 47.0272 22.5522C47.0272 28.526 44.6655 36.0729 37.0378 36.0729Z" fill="white"/>
<path fill-rule="evenodd" clip-rule="evenodd" d="M27.0483 23.4325V22.5522C27.0483 18.0718 30.7075 14.4397 35.2214 14.4397H38.8541C43.368 14.4397 47.0272 18.0718 47.0272 22.5522V23.4536H37.5164C34.781 23.4536 32.2807 22.0573 31.0607 19.8481C31.0607 21.8277 29.2822 23.4325 27.0483 23.4325Z" fill="#52ABE2"/>
<path fill-rule="evenodd" clip-rule="evenodd" d="M41.4248 35.4526C41.4248 35.4526 42.2917 35.8128 42.9028 36.073C47.4905 38.0253 50.6598 42.197 50.6598 47.0281V50.4951H23.4157V47.0281C23.4157 42.208 26.5706 38.0443 31.1413 36.0863L32.497 35.4526L37.0377 41.4812L41.4248 35.4526Z" fill="white" stroke="#154E84" stroke-width="2" stroke-linecap="round" stroke-linejoin="round"/>
<path fill-rule="evenodd" clip-rule="evenodd" d="M47.9354 22.5522C47.9354 30.7174 44.2671 36.9744 37.0377 36.9744C29.8083 36.9744 26.1401 30.7174 26.1401 22.5522C26.1401 16.5186 30.3445 13.5385 37.0377 13.5385C43.7309 13.5385 47.9354 16.5186 47.9354 22.5522ZM27.9563 22.5522C27.9563 29.8531 31.0744 35.1716 37.0377 35.1716C43.001 35.1716 46.1191 29.8531 46.1191 22.5522C46.1191 17.6699 42.8338 15.3412 37.0377 15.3412C31.2416 15.3412 27.9563 17.6699 27.9563 22.5522Z" fill="#154E84"/>
<path fill-rule="evenodd" clip-rule="evenodd" d="M47.0272 24.3549H37.5164C35.1687 24.3549 32.9687 23.4315 31.447 21.8701C30.6366 23.3401 28.9676 24.334 27.0482 24.334C26.5467 24.334 26.1401 23.9304 26.1401 23.4326V22.5522C26.1401 17.574 30.2059 13.5385 35.2214 13.5385H38.854C43.8695 13.5385 47.9354 17.574 47.9354 22.5522V23.4536C47.9354 23.9515 47.5287 24.3549 47.0272 24.3549ZM38.8539 15.3412H35.2214C31.2549 15.3412 28.0308 18.4963 27.9577 22.4159C29.2437 22.0795 30.1526 21.0468 30.1526 19.8481C30.1526 18.9152 31.4052 18.5968 31.857 19.4148C32.9139 21.3284 35.1051 22.5522 37.5164 22.5522H46.1191C46.1191 18.5697 42.8664 15.3412 38.8539 15.3412Z" fill="#154E84"/>
<path fill-rule="evenodd" clip-rule="evenodd" d="M40.6887 34.925L37.0252 39.9591L33.2245 34.913C32.9661 34.5701 32.5005 34.4549 32.1103 34.6372L30.7544 35.2708C25.7773 37.4025 22.5076 41.9418 22.5076 47.0281V50.4951C22.5076 50.9929 22.9142 51.3964 23.4157 51.3964H50.6598C51.1613 51.3964 51.5679 50.9929 51.5679 50.4951V47.0281C51.5679 41.9298 48.2829 37.3818 43.2608 35.2445C42.8507 35.07 42.3557 34.8623 41.7754 34.6212C41.3861 34.4595 40.9358 34.5853 40.6887 34.925ZM36.3104 42.021C36.6773 42.5081 37.4151 42.5021 37.774 42.009L41.7385 36.5612C42.0371 36.6863 42.306 36.7996 42.545 36.9013C46.9234 38.7648 49.7516 42.6802 49.7516 47.0281V49.5937H24.3239V47.0281C24.3239 42.6905 27.1387 38.7827 31.5011 36.9139L32.2134 36.5814L36.3104 42.021Z" fill="#154E84"/>
<path d="M41.5785 44.1853H47.0272C47.5288 44.1853 47.9354 43.7817 47.9354 43.2839C47.9354 42.786 47.5288 42.3826 47.0272 42.3826H41.5785C41.0769 42.3826 40.6703 42.786 40.6703 43.2839C40.6703 43.7817 41.0769 44.1853 41.5785 44.1853Z" fill="#154E84"/>
<path d="M36.1254 41.3948V50.495C36.1254 50.9928 36.5319 51.3963 37.0334 51.3963C37.535 51.3963 37.9416 50.9928 37.9416 50.495V41.3948C37.9416 40.897 37.535 40.4934 37.0334 40.4934C36.5319 40.4934 36.1254 40.897 36.1254 41.3948Z" fill="#154E84"/>
<path d="M78.634 41.3057V21.7604H84.2129C85.9323 21.7604 87.4526 22.1361 88.7738 22.8879C90.095 23.6397 91.1131 24.7092 91.828 26.0963C92.552 27.4834 92.9185 29.0764 92.9275 30.8752V32.1236C92.9275 33.9672 92.5655 35.5825 91.8415 36.9697C91.1266 38.3568 90.0995 39.4218 88.7602 40.1646C87.4299 40.9074 85.878 41.2877 84.1043 41.3057H78.634ZM81.2402 23.8813V39.198H83.9821C85.9912 39.198 87.5521 38.5805 88.6653 37.3455C89.7873 36.1106 90.3484 34.352 90.3484 32.07V30.9289C90.3484 28.7095 89.819 26.9867 88.7602 25.7607C87.7105 24.5257 86.2174 23.8993 84.2808 23.8813H81.2402Z" fill="#091E78"/>
<path d="M107.492 36.2046H99.2122L97.3526 41.3057H94.6649L102.212 21.7604H104.493L112.053 41.3057H109.379L107.492 36.2046ZM99.9996 34.0835H106.719L103.352 24.9418L99.9996 34.0835Z" fill="#091E78"/>
<path d="M125.614 32.674H117.32V41.3057H114.714V21.7604H126.957V23.8813H117.32V30.5665H125.614V32.674Z" fill="#091E78"/>
<path d="M144.007 23.8813H137.654V41.3057H135.061V23.8813H128.723V21.7604H144.007V23.8813Z" fill="#091E78"/>
<path d="M156.766 36.2046H148.486L146.626 41.3057H143.939L151.485 21.7604H153.767L161.327 41.3057H158.654L156.766 36.2046ZM149.273 34.0835H155.993L152.626 24.9418L149.273 34.0835Z" fill="#091E78"/>
<path d="M171.236 33.3989H166.593V41.3057H163.975V21.7604H170.517C172.743 21.7604 174.453 22.2615 175.648 23.2638C176.851 24.2661 177.453 25.7248 177.453 27.6401C177.453 28.8571 177.118 29.9176 176.449 30.8215C175.788 31.7254 174.865 32.4011 173.68 32.8486L178.322 41.1445V41.3057H175.526L171.236 33.3989ZM166.593 31.2913H170.598C171.893 31.2913 172.92 30.9602 173.68 30.2979C174.449 29.6358 174.833 28.7497 174.833 27.6401C174.833 26.4319 174.467 25.5056 173.734 24.8613C173.01 24.2169 171.96 23.8902 170.584 23.8813H166.593V31.2913Z" fill="#091E78"/>
<path d="M181.227 42.9836H179.069L187.322 21.7604H189.467L181.227 42.9836Z" fill="#091E78"/>
<path d="M195.941 21.7604L202.403 37.708L208.863 21.7604H212.243V41.3057H209.637V33.6942L209.882 25.4788L203.393 41.3057H201.398L194.923 25.5191L195.181 33.6942V41.3057H192.575V21.7604H195.941Z" fill="#091E78"/>
<path d="M228.003 36.2046H219.723L217.863 41.3057H215.176L222.723 21.7604H225.004L232.564 41.3057H229.89L228.003 36.2046ZM220.51 34.0835H227.229L223.863 24.9418L220.51 34.0835Z" fill="#091E78"/>
<path d="M241.047 32.5935C238.813 31.9581 237.184 31.1794 236.161 30.2576C235.147 29.3269 234.64 28.1814 234.64 26.8211C234.64 25.2818 235.26 24.011 236.5 23.0087C237.749 21.9974 239.369 21.4918 241.36 21.4918C242.718 21.4918 243.926 21.7513 244.985 22.2704C246.053 22.7895 246.875 23.5054 247.454 24.4182C248.043 25.331 248.337 26.3289 248.337 27.4118H245.717C245.717 26.2305 245.337 25.3042 244.577 24.633C243.817 23.9529 242.744 23.6128 241.36 23.6128C240.075 23.6128 239.07 23.8947 238.346 24.4585C237.632 25.0134 237.274 25.7875 237.274 26.7808C237.274 27.5774 237.614 28.253 238.293 28.8079C238.98 29.3537 240.142 29.855 241.781 30.3114C243.428 30.7678 244.712 31.2734 245.635 31.8282C246.568 32.3743 247.256 33.014 247.699 33.7479C248.152 34.4818 248.377 35.3453 248.377 36.3387C248.377 37.9228 247.754 39.1936 246.505 40.1511C245.256 41.0998 243.586 41.5741 241.496 41.5741C240.138 41.5741 238.872 41.319 237.695 40.809C236.518 40.2899 235.609 39.5828 234.966 38.688C234.333 37.793 234.017 36.7772 234.017 35.6407H236.636C236.636 36.822 237.076 37.7573 237.953 38.4464C238.84 39.1264 240.02 39.4665 241.496 39.4665C242.872 39.4665 243.926 39.1891 244.659 38.6342C245.392 38.0794 245.758 37.3231 245.758 36.3656C245.758 35.408 245.419 34.6697 244.74 34.1506C244.062 33.6226 242.831 33.1036 241.047 32.5935Z" fill="#091E78"/>
<path d="M265.644 21.7604V35.0501C265.635 36.8937 265.047 38.4016 263.88 39.5739C262.721 40.7463 261.147 41.4041 259.156 41.5473L258.463 41.5741C256.3 41.5741 254.577 40.9969 253.291 39.8424C252.007 38.688 251.355 37.0994 251.337 35.0769V21.7604H253.916V34.9964C253.916 36.4103 254.31 37.5112 255.097 38.2987C255.884 39.0772 257.007 39.4666 258.463 39.4666C259.939 39.4666 261.065 39.0772 261.843 38.2987C262.631 37.5201 263.024 36.4238 263.024 35.0098V21.7604H265.644Z" fill="#091E78"/>
<path d="M274.779 32.2176L272.363 34.701V41.3057H269.757V21.7604H272.363V31.4256L281.146 21.7604H284.295L276.517 30.3919L284.906 41.3057H281.783L274.779 32.2176Z" fill="#091E78"/>
</svg>
