<svg width="302" height="70" viewBox="0 0 302 70" fill="none" xmlns="http://www.w3.org/2000/svg">
<path fill-rule="evenodd" clip-rule="evenodd" d="M39.317 63.1147C55.3666 63.1147 68.3773 50.0136 68.3773 33.8524C68.3773 17.6913 55.3666 4.59015 39.317 4.59015C23.2673 4.59015 10.2566 17.6913 10.2566 33.8524C10.2566 50.0136 23.2673 63.1147 39.317 63.1147Z" fill="#E6F0FC"/>
<path fill-rule="evenodd" clip-rule="evenodd" d="M46.6087 19.2213H48.3984C51.4076 19.2213 53.8471 21.6777 53.8471 24.7079V46.6547C53.8471 49.685 51.4076 52.1414 48.3984 52.1414H30.2355C27.2262 52.1414 24.7867 49.685 24.7867 46.6547V24.7079C24.7867 21.6777 27.2262 19.2213 30.2355 19.2213H32.0539" fill="#52ABE2"/>
<path fill-rule="evenodd" clip-rule="evenodd" d="M45.2415 21.9646H46.6956C49.1406 21.9646 51.1228 24.0117 51.1228 26.5369V44.8258C51.1228 47.351 49.1406 49.3981 46.6956 49.3981H31.9384C29.4933 49.3981 27.5112 47.351 27.5112 44.8258V26.5369C27.5112 24.0117 29.4933 21.9646 31.9384 21.9646H33.4158" fill="white"/>
<path d="M46.6087 20.1358H48.3984C50.9061 20.1358 52.939 22.1828 52.939 24.7079V46.6546C52.939 49.1799 50.9061 51.2269 48.3984 51.2269H30.2355C27.7278 51.2269 25.6949 49.1799 25.6949 46.6546V24.7079C25.6949 22.1828 27.7278 20.1358 30.2355 20.1358H32.0539V18.3068H30.2355C26.7247 18.3068 23.8786 21.1727 23.8786 24.7079V46.6546C23.8786 50.19 26.7247 53.0559 30.2355 53.0559H48.3984C51.9092 53.0559 54.7553 50.19 54.7553 46.6546V24.7079C54.7553 21.1727 51.9092 18.3068 48.3984 18.3068H46.6087V20.1358Z" fill="#154E84"/>
<path fill-rule="evenodd" clip-rule="evenodd" d="M34.7763 15.5635H43.8577C45.3623 15.5635 46.5821 16.7918 46.5821 18.3069V20.1358C46.5821 21.6509 45.3623 22.8791 43.8577 22.8791H34.7763C33.2716 22.8791 32.0519 21.6509 32.0519 20.1358V18.3069C32.0519 16.7918 33.2716 15.5635 34.7763 15.5635Z" fill="#FFC200"/>
<path fill-rule="evenodd" clip-rule="evenodd" d="M43.8577 14.649H34.7763C32.7701 14.649 31.1437 16.2867 31.1437 18.3068V20.1358C31.1437 22.1559 32.7701 23.7936 34.7763 23.7936H43.8577C45.8639 23.7936 47.4903 22.1559 47.4903 20.1358V18.3068C47.4903 16.2867 45.8639 14.649 43.8577 14.649ZM32.9601 18.3068C32.9601 17.2968 33.7732 16.478 34.7763 16.478H43.8577C44.8608 16.478 45.6739 17.2968 45.6739 18.3068V20.1358C45.6739 21.1459 44.8608 21.9646 43.8577 21.9646H34.7763C33.7732 21.9646 32.9601 21.1459 32.9601 20.1358V18.3068Z" fill="#154E84"/>
<path d="M32.0519 36.5958H46.5821" stroke="#52ABE2" stroke-width="2" stroke-linecap="round" stroke-linejoin="round"/>
<path d="M32.0519 29.2802H46.5821" stroke="#52ABE2" stroke-width="2" stroke-linecap="round" stroke-linejoin="round"/>
<path d="M32.0519 43.9113H46.5821" stroke="#52ABE2" stroke-width="2" stroke-linecap="round" stroke-linejoin="round"/>
<path d="M82.3377 33.6462V41.3114H79.7736V21.7315H86.9451C89.073 21.7315 90.738 22.2784 91.9398 23.3721C93.1508 24.4659 93.7562 25.9137 93.7562 27.7157C93.7562 29.6164 93.1641 31.0821 91.9799 32.1132C90.8048 33.1352 89.1176 33.6462 86.9184 33.6462H82.3377ZM82.3377 31.5349H86.9451C88.3163 31.5349 89.3668 31.2121 90.0969 30.5667C90.827 29.9122 91.192 28.9709 91.192 27.7427C91.192 26.5772 90.827 25.6449 90.0969 24.9455C89.3668 24.2462 88.3652 23.8831 87.092 23.8563H82.3377V31.5349Z" fill="#091E78"/>
<path d="M105.923 36.2013H97.7759L95.9464 41.3114H93.3021L100.727 21.7315H102.971L110.409 41.3114H107.779L105.923 36.2013ZM98.5505 34.0765H105.161L101.849 24.9186L98.5505 34.0765Z" fill="#091E78"/>
<path d="M127.971 41.3114H125.394L115.605 26.2231V41.3114H113.027V21.7315H115.605L125.421 36.8871V21.7315H127.971V41.3114Z" fill="#091E78"/>
<path d="M132.526 41.3114V21.7315H138.015C139.706 21.7315 141.202 22.108 142.501 22.8611C143.802 23.6142 144.803 24.6855 145.506 26.0752C146.219 27.4647 146.58 29.0605 146.588 30.8625V32.1132C146.588 33.96 146.232 35.5782 145.52 36.9678C144.817 38.3574 143.806 39.4243 142.489 40.1684C141.179 40.9124 139.652 41.2935 137.907 41.3114H132.526ZM135.09 23.8563V39.2002H137.788C139.764 39.2002 141.3 38.5815 142.395 37.3444C143.498 36.1071 144.051 34.3455 144.051 32.0594V30.9163C144.051 28.693 143.53 26.9672 142.489 25.739C141.455 24.5018 139.986 23.8742 138.082 23.8563H135.09Z" fill="#091E78"/>
<path d="M164.163 21.7315V35.0448C164.154 36.8916 163.576 38.4022 162.428 39.5767C161.288 40.7511 159.738 41.41 157.78 41.5534L157.099 41.5804C154.971 41.5804 153.275 41.0022 152.01 39.8457C150.746 38.6891 150.105 37.0978 150.088 35.0717V21.7315H152.625V34.991C152.625 36.4075 153.012 37.5102 153.787 38.2991C154.561 39.0791 155.665 39.469 157.099 39.469C158.549 39.469 159.658 39.0791 160.424 38.2991C161.199 37.5191 161.587 36.421 161.587 35.0044V21.7315H164.163Z" fill="#091E78"/>
<path d="M178.654 36.2013H170.507L168.677 41.3114H166.033L173.459 21.7315H175.702L183.141 41.3114H180.51L178.654 36.2013ZM171.281 34.0765H177.892L174.58 24.9186L171.281 34.0765Z" fill="#091E78"/>
<path d="M200.703 41.3114H198.125L188.336 26.2231V41.3114H185.758V21.7315H188.336L198.151 36.8871V21.7315H200.703V41.3114Z" fill="#091E78"/>
<path d="M211.133 36.0535C211.133 35.1121 211.391 34.247 211.908 33.4579C212.433 32.6691 213.43 31.7502 214.899 30.7012C214.035 29.6433 213.456 28.7916 213.162 28.1461C212.869 27.5006 212.722 26.8596 212.722 26.2232C212.722 24.7349 213.158 23.5695 214.031 22.7267C214.904 21.884 216.088 21.4626 217.583 21.4626C218.919 21.4626 220.023 21.8571 220.895 22.646C221.768 23.426 222.204 24.4121 222.204 25.6045C222.204 26.3935 222.004 27.1241 221.604 27.7966C221.212 28.4599 220.521 29.1593 219.533 29.8944L218.104 30.9568L222.431 36.161C223.036 34.9955 223.339 33.7001 223.339 32.2746H225.569C225.569 34.5607 225.022 36.4568 223.927 37.963L226.704 41.3115H223.74L222.445 39.7649C221.786 40.3567 221.011 40.8094 220.121 41.1232C219.239 41.4281 218.34 41.5805 217.423 41.5805C215.527 41.5805 214.005 41.0739 212.856 40.0609C211.707 39.0477 211.133 37.712 211.133 36.0535ZM217.423 39.5498C218.732 39.5498 219.929 39.0477 221.015 38.0436L216.275 32.3284L215.834 32.6511C214.346 33.7539 213.603 34.8879 213.603 36.0535C213.603 37.1113 213.942 37.9585 214.619 38.595C215.304 39.2316 216.239 39.5498 217.423 39.5498ZM215.193 26.1424C215.193 27.003 215.719 28.079 216.768 29.3699L218.344 28.2537C218.949 27.8234 219.364 27.4155 219.586 27.03C219.809 26.6355 219.92 26.1604 219.92 25.6045C219.92 25.0039 219.698 24.5063 219.253 24.1118C218.807 23.7084 218.246 23.5067 217.57 23.5067C216.84 23.5067 216.261 23.7577 215.834 24.2597C215.406 24.7528 215.193 25.3804 215.193 26.1424Z" fill="#091E78"/>
<path d="M246.564 32.6645H238.404V41.3114H235.84V21.7315H247.886V23.8563H238.404V30.5532H246.564V32.6645Z" fill="#091E78"/>
<path d="M259.424 36.2013H251.278L249.448 41.3114H246.804L254.229 21.7315H256.473L263.912 41.3114H261.281L259.424 36.2013ZM252.052 34.0765H258.663L255.351 24.9186L252.052 34.0765Z" fill="#091E78"/>
<path d="M281.219 32.1535C281.219 34.0453 280.921 35.6768 280.325 37.0486C279.729 38.4113 278.891 39.4781 277.814 40.2491L281.287 42.9924L279.537 44.6196L275.437 41.3383C274.795 41.4998 274.12 41.5805 273.407 41.5805C271.876 41.5805 270.517 41.2038 269.333 40.4508C268.149 39.6887 267.228 38.6084 266.57 37.2099C265.919 35.8024 265.585 34.1752 265.568 32.3284V30.9164C265.568 29.0337 265.893 27.3707 266.542 25.9273C267.193 24.4838 268.109 23.3812 269.293 22.6191C270.486 21.8482 271.848 21.4626 273.38 21.4626C274.947 21.4626 276.323 21.8437 277.507 22.6057C278.7 23.3677 279.617 24.4659 280.258 25.9004C280.899 27.3258 281.219 28.9933 281.219 30.9029V32.1535ZM278.655 30.8895C278.655 28.5855 278.197 26.8104 277.28 25.5641C276.372 24.3091 275.072 23.6815 273.38 23.6815C271.769 23.6815 270.496 24.3046 269.561 25.5507C268.635 26.788 268.158 28.5093 268.132 30.7146V32.1535C268.132 34.3949 268.595 36.161 269.52 37.452C270.456 38.7429 271.751 39.3884 273.407 39.3884C275.063 39.3884 276.345 38.7833 277.254 37.573C278.161 36.3538 278.629 34.6101 278.655 32.3418V30.8895Z" fill="#091E78"/>
</svg>
